# xmcd
#
# Track frame offsets:
#	150
#	12592
#	25113
#	33129
#	46639
#	55738
#	68895
#	79200
#	89924
#	99267
#	107761
#	119431
#	130981
#	142329
#	152170
#	163682
#	175422
#	185490
#	195312
#	205621
#	216881
#	227470
#	237050
#	255429
#	263664
#
# Disc length: 3682 seconds
#
# Revision: 4
# Processed by: cddbd v1.5.2PL0 Copyright (c) Steve Scherf et al.
# Submitted via: audiograbber 1.83.01
#
DISCID=520e6019
DTITLE=Johnny Cash - The Very Best Of - CD1
DYEAR=2013
DGENRE=Country
TTITLE0=I Walk The Line
TTITLE1=Folsom Prison Blues
TTITLE2=Five Feet High and Rising
TTITLE3=Tennessee Flat-Top Box
TTITLE4=Delia's Gone
TTITLE5=Forty Shades of Green
TTITLE6=Busted
TTITLE7=In The Jailhouse Now
TTITLE8=I Got Stripes
TTITLE9=The Rebel - Johnny Yuma
TTITLE10=I Still Miss Someone
TTITLE11=Transfusion Blues
TTITLE12=Big River
TTITLE13=Ballad Of A Teenager Queen
TTITLE14=In Them Old Cottonfields Back Home
TTITLE15=So Doggone Lonesome
TTITLE16=Run Softly Blue River
TTITLE17=Rock Island Line
TTITLE18=Frankie's Man, Johnny
TTITLE19=Oh Lonesome Me
TTITLE20=Mama's Baby
TTITLE21=Smiling Bill McCall
TTITLE22=The Big Battle
TTITLE23=You Won't Have Far To Go
TTITLE24=(There'll Be) Peace In The Valley
EXTD=
EXTT0=
EXTT1=
EXTT2=
EXTT3=
EXTT4=
EXTT5=
EXTT6=
EXTT7=
EXTT8=
EXTT9=
EXTT10=
EXTT11=
EXTT12=
EXTT13=
EXTT14=
EXTT15=
EXTT16=
EXTT17=
EXTT18=
EXTT19=
EXTT20=
EXTT21=
EXTT22=
EXTT23=
EXTT24=
PLAYORDER=
